<svg width="32" height="32" viewBox="0 0 32 32" fill="none" xmlns="http://www.w3.org/2000/svg">
<rect width="32" height="32" rx="16" fill="black" fill-opacity="0.6"/>
<path d="M7 25C6.45 25 5.979 24.804 5.587 24.412C5.195 24.02 4.99934 23.5493 5 23V11C5 10.45 5.196 9.979 5.588 9.587C5.98 9.195 6.45067 8.99933 7 9H10.15L12 7H18V9H12.875L11.05 11H7V23H23V14H25V23C25 23.55 24.804 24.021 24.412 24.413C24.02 24.805 23.5493 25.0007 23 25H7ZM23 11V9H21V7H23V5H25V7H27V9H25V11H23ZM15 21.5C16.25 21.5 17.3127 21.0623 18.188 20.187C19.0633 19.3117 19.5007 18.2493 19.5 17C19.5 15.75 19.0623 14.6873 18.187 13.812C17.3117 12.9367 16.2493 12.4993 15 12.5C13.75 12.5 12.6873 12.9377 11.812 13.813C10.9367 14.6883 10.4993 15.7507 10.5 17C10.5 18.25 10.9377 19.3127 11.813 20.188C12.6883 21.0633 13.7507 21.5007 15 21.5ZM15 19.5C14.3 19.5 13.7083 19.2583 13.225 18.775C12.7417 18.2917 12.5 17.7 12.5 17C12.5 16.3 12.7417 15.7083 13.225 15.225C13.7083 14.7417 14.3 14.5 15 14.5C15.7 14.5 16.2917 14.7417 16.775 15.225C17.2583 15.7083 17.5 16.3 17.5 17C17.5 17.7 17.2583 18.2917 16.775 18.775C16.2917 19.2583 15.7 19.5 15 19.5Z" fill="#F9F9F9"/>
</svg>
