<svg width="18" height="18" viewBox="0 0 18 18" fill="none" xmlns="http://www.w3.org/2000/svg">
<rect width="18" height="18" fill="#1E1E1E"/>
<g id="Assignment 1.1">
<rect width="1920" height="1368" transform="translate(-664 -1166)" fill="#040404"/>
<g id="profile-icon">
<g id="state=not selected">
<g id="Group">
<path id="Vector" d="M1 15C1 13.9391 1.42143 12.9217 2.17157 12.1716C2.92172 11.4214 3.93913 11 5 11H13C14.0609 11 15.0783 11.4214 15.8284 12.1716C16.5786 12.9217 17 13.9391 17 15C17 15.5304 16.7893 16.0391 16.4142 16.4142C16.0391 16.7893 15.5304 17 15 17H3C2.46957 17 1.96086 16.7893 1.58579 16.4142C1.21071 16.0391 1 15.5304 1 15Z" stroke="white" stroke-width="2" stroke-linejoin="round"/>
<path id="Vector_2" d="M9 7C10.6569 7 12 5.65685 12 4C12 2.34315 10.6569 1 9 1C7.34315 1 6 2.34315 6 4C6 5.65685 7.34315 7 9 7Z" stroke="white" stroke-width="2"/>
</g>
</g>
<rect x="-22.5" y="-22.5" width="63" height="107" rx="4.5" stroke="#9747FF" stroke-dasharray="10 5"/>
</g>
</g>
</svg>
